# xmcd
#
# Track frame offsets: 
#        150
#        11456
#        24630
#        35251
#        52532
#        67562
#        86306
#        110489
#        126200
#        141832
#        181170
#        204694
#        232081
#        255716
#        273149
#        284212
#        294526
#
# Disc length: 4355 seconds
#
# Revision: 11
# Processed by: cddbd v1.5.2PL0 Copyright (c) Steve Scherf et al.
# Submitted via: ExactAudioCopyFreeDBPlugin 1.0
#
DISCID=ea110111
DTITLE=Various Artist - Я не увижу Миссисипи(российский блюз 90-х)
DYEAR=1999
DGENRE=Blues
TTITLE0=Blues cousins - I'm Tired
TTITLE1=Кроссроудз - Walkin' And Cryin'
TTITLE2=Moscow super blues band - I Want To Be Loved
TTITLE3=Серебряный рубль - Bad Loser
TTITLE4=Blues hammer band - Missisipi Kid - Alabama Bound
TTITLE5=J.A.M. - Mousetrap
TTITLE6=Дикий мёд - Не увижу Миссисипи
TTITLE7=Stainless blues band - I Can't Be Satisfied
TTITLE8=Blues rhythm section - Mr. Shering Blues
TTITLE9=Три Белова - Ramblin' On My Mind
TTITLE10=King biscuit - I Wish You Would
TTITLE11=Blues passengers - No Place To Go
TTITLE12=Белинов Блюзбэнд - Compared to What
TTITLE13=Лига Блюза - "Hoochie Coochie Man"
TTITLE14=Удачное приобретение - 1974 - Talk With You
TTITLE15=Умка и "Броневичёк" - Я ненавижу девочек
TTITLE16=Соколов и Садиков - Весь Этот Блюз
EXTD=YEAR: 1999
EXTT0=
EXTT1=
EXTT2=
EXTT3=
EXTT4=
EXTT5=
EXTT6=
EXTT7=
EXTT8=
EXTT9=
EXTT10=
EXTT11=
EXTT12=
EXTT13=
EXTT14=
EXTT15=
EXTT16=
PLAYORDER=
